<svg width="668" height="197" viewBox="0 0 668 197" fill="none" xmlns="http://www.w3.org/2000/svg">
<path fill-rule="evenodd" clip-rule="evenodd" d="M156.186 25.4245C198.005 17.2029 449.153 11.2899 492.036 17.7366C550.842 26.5771 610.36 20.5992 632.5 52C657.061 86.8334 662.322 151.449 614 177.5C569.963 201.241 277.408 183.505 215.838 183.088C155.653 182.681 54 202.5 27.4992 177.5C4.99919 146.5 7.49918 97.5 21 69.0568C42.4824 41.1185 104.449 35.5961 156.186 25.4245Z" fill="black"/>
<path fill-rule="evenodd" clip-rule="evenodd" d="M106.816 61.5252C92.2366 64.2657 68.4502 73.1489 53.5 71C32.9987 68.0532 22.2186 71.9921 14.5 61.5252C5.93758 49.914 8.47558 21.7569 25.3216 13.0733C40.6739 5.1597 64.5546 8.83151 86.0196 8.97056C107.001 9.10648 130.73 5.7769 145.156 13.8496C160.409 22.3852 160.174 45.7146 151.5 56.5C144.011 65.8128 124.852 58.1346 106.816 61.5252Z" fill="black"/>
</svg>
